PathFileType	3	(X/Y/Z)	walking_2__fused_aligned.trc
DataRate	CameraRate	NumFrames	NumMarkers	Units	OrigDataRate	OrigDataStartFrame	OrigNumFrames
100.0	100.0	9	19	mm	100.0	4935	6270
Frame#	Time	pelvis			neck			head			hip_left			hip_right			knee_left			knee_right			ankle_left			ankle_right			heel_left			heel_right			toe_left			toe_right			shoulder_left			shoulder_right			elbow_left			elbow_right			wrist_left			wrist_right			
		X1	Y1	Z1	X2	Y2	Z2	X3	Y3	Z3	X4	Y4	Z4	X5	Y5	Z5	X6	Y6	Z6	X7	Y7	Z7	X8	Y8	Z8	X9	Y9	Z9	X10	Y10	Z10	X11	Y11	Z11	X12	Y12	Z12	X13	Y13	Z13	X14	Y14	Z14	X15	Y15	Z15	X16	Y16	Z16	X17	Y17	Z17	X18	Y18	Z18	X19	Y19	Z19	
4935	49.34000	97.807435	946.819987	124.941435	70.354111	1501.138736	214.729945	54.756466	1579.886282	365.781484	174.720161	951.780695	131.861445	20.895046	941.859284	118.021319	166.454875	512.755189	172.701045	-54.058234	540.552814	290.435460	153.522081	99.008553	81.963686	-76.161613	224.107687	99.213073	150.478505	50.312192	45.143012	-71.315419	201.013747	54.327697	144.511243	38.066575	269.361873	-104.760995	102.269045	210.440834	251.684779	1457.556583	196.015104	-98.088396	1441.164217	149.928544	338.700722	1177.887684	160.544718	-145.707367	1151.509810	107.428097	369.764978	924.304994	229.594238	-176.959469	898.800199	194.617286
4936	49.35000	97.545579	946.733224	124.248356	69.600250	1501.096737	214.295673	53.042114	1580.277822	365.129349	174.488462	951.666333	131.295370	20.602991	941.800119	117.201251	166.259109	512.019854	165.295277	-54.647899	541.775233	294.509372	153.664834	98.901553	71.543589	-77.552253	221.122388	114.394270	150.681100	50.262766	34.476263	-72.921174	196.647089	70.538828	144.745210	37.758889	259.204141	-105.804205	103.769120	229.193172	251.122049	1457.392295	197.530078	-98.330010	1441.212915	147.806166	338.909036	1177.569820	165.138469	-145.482306	1151.722551	103.174425	367.964416	925.321829	238.550060	-178.573922	897.862947	186.277245
4937	49.36000	97.283724	946.646460	123.555277	68.846389	1501.054738	213.861401	51.327763	1580.669361	364.477214	174.256763	951.551970	130.729294	20.310936	941.740954	116.381182	166.063342	511.284518	157.889509	-55.237564	542.997652	298.583285	153.807588	98.794553	61.123492	-78.942893	218.137089	129.575466	150.883696	50.213339	23.809514	-74.526928	192.280430	86.749959	144.979176	37.451202	249.046409	-106.847416	105.269194	247.945510	250.559318	1457.228008	199.045051	-98.571625	1441.261613	145.683789	339.117349	1177.251956	169.732220	-145.257245	1151.935292	98.920753	366.163853	926.338664	247.505883	-180.188374	896.925695	177.937204
4938	49.37000	97.021868	946.559697	122.862198	68.092527	1501.012739	213.427129	49.613411	1581.060900	363.825079	174.025065	951.437608	130.163219	20.018881	941.681789	115.561114	165.867576	510.549183	150.483741	-55.827229	544.220071	302.657198	153.950341	98.687553	50.703395	-80.333533	215.151790	144.756662	151.086291	50.163913	13.142765	-76.132683	187.913772	102.961091	145.213142	37.143516	238.888678	-107.890626	106.769269	266.697848	249.996588	1457.063720	200.560025	-98.813240	1441.310310	143.561412	339.325662	1176.934092	174.325971	-145.032183	1152.148033	94.667081	364.363291	927.355499	256.461706	-181.802827	895.988442	169.597163
4939	49.38000	96.760012	946.472934	122.169119	67.338666	1500.970740	212.992857	47.899059	1581.452439	363.172944	173.793366	951.323246	129.597143	19.726826	941.622624	114.741046	165.671809	509.813847	143.077973	-56.416893	545.442490	306.731110	154.093095	98.580553	40.283298	-81.724173	212.166492	159.937859	151.288886	50.114486	2.476016	-77.738438	183.547114	119.172222	145.447108	36.835829	228.730946	-108.933837	108.269343	285.450187	249.433858	1456.899432	202.074999	-99.054854	1441.359008	141.439034	339.533975	1176.616228	178.919722	-144.807122	1152.360774	90.413409	362.562728	928.372334	265.417528	-183.417280	895.051190	161.257122
4940	49.39000	96.498156	946.386170	121.476040	66.584804	1500.928741	212.558584	46.184708	1581.843978	362.520809	173.561668	951.208884	129.031067	19.434770	941.563459	113.920978	165.476043	509.078511	135.672205	-57.006558	546.664909	310.805023	154.235849	98.473553	29.863201	-83.114813	209.181193	175.119055	151.491481	50.065060	-8.190733	-79.344193	179.180455	135.383353	145.681075	36.528143	218.573214	-109.977047	109.769418	304.202525	248.871128	1456.735145	203.589973	-99.296469	1441.407706	139.316657	339.742288	1176.298364	183.513473	-144.582061	1152.573515	86.159738	360.762165	929.389170	274.373351	-185.031732	894.113938	152.917082
4941	49.40000	96.236300	946.299407	120.782961	65.830943	1500.886742	212.124312	44.470356	1582.235517	361.868675	173.329969	951.094521	128.464992	19.142715	941.504294	113.100909	165.280276	508.343176	128.266437	-57.596223	547.887328	314.878936	154.378602	98.366554	19.443104	-84.505453	206.195894	190.300251	151.694076	50.015633	-18.857482	-80.949948	174.813797	151.594484	145.915041	36.220456	208.415482	-111.020258	111.269492	322.954863	248.308397	1456.570857	205.104946	-99.538084	1441.456404	137.194279	339.950602	1175.980500	188.107223	-144.356999	1152.786256	81.906066	358.961603	930.406005	283.329174	-186.646185	893.176686	144.577041
4942	49.41000	95.974444	946.212644	120.089882	65.077081	1500.844743	211.690040	42.756004	1582.627056	361.216540	173.098270	950.980159	127.898916	18.850660	941.445129	112.280841	165.084510	507.607840	120.860669	-58.185888	549.109747	318.952849	154.521356	98.259554	9.023007	-85.896093	203.210596	205.481447	151.896671	49.966207	-29.524231	-82.555702	170.447139	167.805615	146.149007	35.912770	198.257750	-112.063468	112.769567	341.707201	247.745667	1456.406569	206.619920	-99.779698	1441.505102	135.071902	340.158915	1175.662636	192.700974	-144.131938	1152.998996	77.652394	357.161040	931.422840	292.284996	-188.260637	892.239434	136.237000
4943	49.42000	95.712588	946.125880	119.396803	64.323220	1500.802744	211.255768	41.041653	1583.018595	360.564405	172.866572	950.865797	127.332841	18.558605	941.385964	111.460773	164.888743	506.872505	113.454901	-58.775553	550.332166	323.026761	154.664109	98.152554	-1.397090	-87.286732	200.225297	220.662644	152.099266	49.916781	-40.190980	-84.161457	166.080481	184.016746	146.382973	35.605083	188.100019	-113.106679	114.269641	360.459539	247.182937	1456.242282	208.134894	-100.021313	1441.553800	132.949525	340.367228	1175.344772	197.294725	-143.906877	1153.211737	73.398722	355.360478	932.439675	301.240819	-189.875090	891.302182	127.896959
